{
  "accessors": [
    {
      "bufferView": 2,
      "componentType": 5126,
      "count": 65532,
      "max": [
        1.414747953414917,
        6.452177047729492,
        1.414692997932434
      ],
      "min": [
        -1.2432819604873657,
        -1.5895769596099854,
        -1.921457052230835
      ],
      "type": "VEC3"
    },
    {
      "bufferView": 2,
      "byteOffset": 786384,
      "componentType": 5126,
      "count": 65532,
      "max": [
        1.0,
        0.9999878406524658,
        0.9999973773956299
      ],
      "min": [
        -0.9895662665367126,
        -0.9999706745147705,
        -1.0
      ],
      "type": "VEC3"
    },
    {
      "bufferView": 3,
      "componentType": 5126,
      "count": 65532,
      "max": [
        0.9999983906745911,
        1.0,
        1.0,
        1.0
      ],
      "min": [
        -0.9999948740005493,
        -1.0,
        -0.999975323677063,
        1.0
      ],
      "type": "VEC4"
    },
    {
      "bufferView": 1,
      "componentType": 5126,
      "count": 65532,
      "max": [
        0.9997559785842896,
        0.9568960070610046
      ],
      "min": [
        0.00024399999529123306,
        0.00024399999529123306
      ],
      "type": "VEC2"
    },
    {
      "bufferView": 0,
      "componentType": 5125,
      "count": 349575,
      "type": "SCALAR"
    },
    {
      "bufferView": 2,
      "byteOffset": 1572768,
      "componentType": 5126,
      "count": 65532,
      "max": [
        1.30171799659729,
        6.34528112411499,
        1.34552001953125
      ],
      "min": [
        -1.414566993713379,
        -3.997689962387085,
        -1.921457052230835
      ],
      "type": "VEC3"
    },
    {
      "bufferView": 2,
      "byteOffset": 2359152,
      "componentType": 5126,
      "count": 65532,
      "max": [
        1.0,
        0.999652087688446,
        0.9999516010284424
      ],
      "min": [
        -1.0,
        -0.9999048709869385,
        -1.0
      ],
      "type": "VEC3"
    },
    {
      "bufferView": 3,
      "byteOffset": 1048512,
      "componentType": 5126,
      "count": 65532,
      "max": [
        0.9999861717224121,
        1.0,
        0.9999995231628418,
        1.0
      ],
      "min": [
        -0.9999794363975525,
        -1.0,
        -0.9999845027923584,
        -1.0
      ],
      "type": "VEC4"
    },
    {
      "bufferView": 1,
      "byteOffset": 524256,
      "componentType": 5126,
      "count": 65532,
      "max": [
        0.9305949807167053,
        0.9569190144538879
      ],
      "min": [
        0.00024399999529123306,
        0.00024500000290572643
      ],
      "type": "VEC2"
    },
    {
      "bufferView": 0,
      "byteOffset": 1398300,
      "componentType": 5125,
      "count": 342822,
      "type": "SCALAR"
    },
    {
      "bufferView": 2,
      "byteOffset": 3145536,
      "componentType": 5126,
      "count": 8972,
      "max": [
        0.45528900623321533,
        6.4223761558532715,
        1.414692997932434
      ],
      "min": [
        -1.414566993713379,
        -3.9671289920806885,
        -1.8538529872894287
      ],
      "type": "VEC3"
    },
    {
      "bufferView": 2,
      "byteOffset": 3253200,
      "componentType": 5126,
      "count": 8972,
      "max": [
        0.9569313526153564,
        0.9986817836761475,
        0.9999932050704956
      ],
      "min": [
        -0.9999969005584717,
        -0.9994688630104065,
        -0.9998423457145691
      ],
      "type": "VEC3"
    },
    {
      "bufferView": 3,
      "byteOffset": 2097024,
      "componentType": 5126,
      "count": 8972,
      "max": [
        0.9998932480812073,
        0.9999975562095642,
        0.9999323487281799,
        1.0
      ],
      "min": [
        -0.9999756217002869,
        -0.9998652338981628,
        -0.9999935030937195,
        1.0
      ],
      "type": "VEC4"
    },
    {
      "bufferView": 1,
      "byteOffset": 1048512,
      "componentType": 5126,
      "count": 8972,
      "max": [
        0.9977459907531738,
        0.9569209814071655
      ],
      "min": [
        0.00024399999529123306,
        0.00031400000443682075
      ],
      "type": "VEC2"
    },
    {
      "bufferView": 0,
      "byteOffset": 2769588,
      "componentType": 5125,
      "count": 36927,
      "type": "SCALAR"
    }
  ],
  "asset": {
    "extras": {
      "author": "vertexmonster (https://sketchfab.com/vertexmonster)",
      "license": "SKETCHFAB Standard (https://sketchfab.com/licenses)",
      "source": "https://sketchfab.com/3d-models/red-alert-airship-inspired-by-kirov-airship-9d97054f757840b1beb3e2fa86c58ebf",
      "title": "Red Alert Airship (Inspired by Kirov Airship)"
    },
    "generator": "Sketchfab-15.50.0",
    "version": "2.0"
  },
  "bufferViews": [
    {
      "buffer": 0,
      "byteLength": 2917296,
      "name": "floatBufferViews",
      "target": 34963
    },
    {
      "buffer": 0,
      "byteLength": 1120288,
      "byteOffset": 2917296,
      "byteStride": 8,
      "name": "floatBufferViews",
      "target": 34962
    },
    {
      "buffer": 0,
      "byteLength": 3360864,
      "byteOffset": 4037584,
      "byteStride": 12,
      "name": "floatBufferViews",
      "target": 34962
    },
    {
      "buffer": 0,
      "byteLength": 2240576,
      "byteOffset": 7398448,
      "byteStride": 16,
      "name": "floatBufferViews",
      "target": 34962
    }
  ],
  "buffers": [
    {
      "byteLength": 9639024,
      "uri": "scene.bin"
    }
  ],
  "extensionsUsed": [
    "KHR_materials_specular"
  ],
  "images": [
    {
      "uri": "textures/airship_lp_baseColor.jpeg"
    },
    {
      "uri": "textures/airship_lp_metallicRoughness.png"
    },
    {
      "uri": "textures/airship_lp_normal.png"
    }
  ],
  "materials": [
    {
      "doubleSided": true,
      "extensions": {
        "KHR_materials_specular": {
          "specularColorFactor": [
            1.0,
            1.0,
            1.0
          ],
          "specularFactor": 0.7239230012131371
        }
      },
      "name": "airship_lp",
      "normalTexture": {
        "index": 2
      },
      "pbrMetallicRoughness": {
        "baseColorTexture": {
          "index": 0
        },
        "metallicRoughnessTexture": {
          "index": 1
        }
      }
    }
  ],
  "meshes": [
    {
      "name": "Object_0",
      "primitives": [
        {
          "attributes": {
            "NORMAL": 1,
            "POSITION": 0,
            "TANGENT": 2,
            "TEXCOORD_0": 3
          },
          "indices": 4,
          "material": 0,
          "mode": 4
        }
      ]
    },
    {
      "name": "Object_1",
      "primitives": [
        {
          "attributes": {
            "NORMAL": 6,
            "POSITION": 5,
            "TANGENT": 7,
            "TEXCOORD_0": 8
          },
          "indices": 9,
          "material": 0,
          "mode": 4
        }
      ]
    },
    {
      "name": "Object_2",
      "primitives": [
        {
          "attributes": {
            "NORMAL": 11,
            "POSITION": 10,
            "TANGENT": 12,
            "TEXCOORD_0": 13
          },
          "indices": 14,
          "material": 0,
          "mode": 4
        }
      ]
    }
  ],
  "nodes": [
    {
      "children": [
        1
      ],
      "matrix": [
        1.0,
        0.0,
        0.0,
        0.0,
        0.0,
        2.220446049250313e-16,
        -1.0,
        0.0,
        0.0,
        1.0,
        2.220446049250313e-16,
        0.0,
        0.0,
        0.0,
        0.0,
        1.0
      ],
      "name": "Sketchfab_model"
    },
    {
      "children": [
        2,
        3,
        4
      ],
      "name": "airship_lp.obj.cleaner.materialmerger.gles"
    },
    {
      "mesh": 0,
      "name": "Object_2"
    },
    {
      "mesh": 1,
      "name": "Object_3"
    },
    {
      "mesh": 2,
      "name": "Object_4"
    }
  ],
  "samplers": [
    {
      "magFilter": 9729,
      "minFilter": 9987,
      "wrapS": 10497,
      "wrapT": 10497
    }
  ],
  "scene": 0,
  "scenes": [
    {
      "name": "Sketchfab_Scene",
      "nodes": [
        0
      ]
    }
  ],
  "textures": [
    {
      "sampler": 0,
      "source": 0
    },
    {
      "sampler": 0,
      "source": 1
    },
    {
      "sampler": 0,
      "source": 2
    }
  ]
}
