{
  "accessors": [
    {
      "bufferView": 2,
      "componentType": 5126,
      "count": 6974,
      "max": [
        5734.2470703125,
        1797.0780029296875,
        -0.0
      ],
      "min": [
        -5734.2470703125,
        -1797.0780029296875,
        -19332.685546875
      ],
      "type": "VEC3"
    },
    {
      "bufferView": 2,
      "byteOffset": 83688,
      "componentType": 5126,
      "count": 6974,
      "max": [
        1.0,
        1.0,
        1.0
      ],
      "min": [
        -1.0,
        -1.0,
        -1.0
      ],
      "type": "VEC3"
    },
    {
      "bufferView": 1,
      "componentType": 5126,
      "count": 6974,
      "max": [
        1.0,
        0.9947541356086731
      ],
      "min": [
        -2.6254536322767308e-08,
        -1.3790544528546889e-07
      ],
      "type": "VEC2"
    },
    {
      "bufferView": 1,
      "byteOffset": 55792,
      "componentType": 5126,
      "count": 6974,
      "max": [
        1.0,
        0.9947541356086731
      ],
      "min": [
        -2.6254536322767308e-08,
        -1.3790544528546889e-07
      ],
      "type": "VEC2"
    },
    {
      "bufferView": 1,
      "byteOffset": 111584,
      "componentType": 5126,
      "count": 6974,
      "max": [
        1.0,
        0.9947541356086731
      ],
      "min": [
        -2.6254536322767308e-08,
        -1.3790544528546889e-07
      ],
      "type": "VEC2"
    },
    {
      "bufferView": 0,
      "componentType": 5125,
      "count": 12978,
      "type": "SCALAR"
    },
    {
      "bufferView": 2,
      "byteOffset": 167376,
      "componentType": 5126,
      "count": 38708,
      "max": [
        5555.404296875,
        1312.6214599609375,
        -9961.658203125
      ],
      "min": [
        -5555.404296875,
        -1312.6214599609375,
        -17031.693359375
      ],
      "type": "VEC3"
    },
    {
      "bufferView": 2,
      "byteOffset": 631872,
      "componentType": 5126,
      "count": 38708,
      "max": [
        1.0,
        1.0,
        1.0
      ],
      "min": [
        -1.0,
        -1.0,
        -0.8925514221191406
      ],
      "type": "VEC3"
    },
    {
      "bufferView": 1,
      "byteOffset": 167376,
      "componentType": 5126,
      "count": 38708,
      "max": [
        1.0,
        1.0
      ],
      "min": [
        0.0,
        0.0
      ],
      "type": "VEC2"
    },
    {
      "bufferView": 0,
      "byteOffset": 51912,
      "componentType": 5125,
      "count": 70734,
      "type": "SCALAR"
    }
  ],
  "asset": {
    "extras": {
      "author": "yarankepang (https://sketchfab.com/yarankepang)",
      "license": "CC-BY-4.0 (http://creativecommons.org/licenses/by/4.0/)",
      "source": "https://sketchfab.com/3d-models/korean-power-tansmission-tower-765kv-d6d76f975e7944d48a41201adb24bb5b",
      "title": "Korean Power Tansmission Tower 765kV"
    },
    "generator": "Sketchfab-15.34.0",
    "version": "2.0"
  },
  "bufferViews": [
    {
      "buffer": 0,
      "byteLength": 334848,
      "name": "floatBufferViews",
      "target": 34963
    },
    {
      "buffer": 0,
      "byteLength": 477040,
      "byteOffset": 334848,
      "byteStride": 8,
      "name": "floatBufferViews",
      "target": 34962
    },
    {
      "buffer": 0,
      "byteLength": 1096368,
      "byteOffset": 811888,
      "byteStride": 12,
      "name": "floatBufferViews",
      "target": 34962
    }
  ],
  "buffers": [
    {
      "byteLength": 1908256,
      "uri": "scene.bin"
    }
  ],
  "images": [
    {
      "uri": "textures/Steel_baseColor.png"
    },
    {
      "uri": "textures/Steel_metallicRoughness.png"
    }
  ],
  "materials": [
    {
      "doubleSided": true,
      "name": "Steel",
      "pbrMetallicRoughness": {
        "baseColorTexture": {
          "index": 0
        },
        "metallicRoughnessTexture": {
          "index": 1
        }
      }
    },
    {
      "doubleSided": true,
      "name": "Insulator",
      "pbrMetallicRoughness": {
        "baseColorFactor": [
          0.003642,
          0.003642,
          0.003642,
          1.0
        ],
        "metallicFactor": 0.0,
        "roughnessFactor": 0.5
      }
    }
  ],
  "meshes": [
    {
      "name": "Object_0",
      "primitives": [
        {
          "attributes": {
            "NORMAL": 1,
            "POSITION": 0,
            "TEXCOORD_0": 2,
            "TEXCOORD_1": 3,
            "TEXCOORD_2": 4
          },
          "indices": 5,
          "material": 0,
          "mode": 4
        }
      ]
    },
    {
      "name": "Object_1",
      "primitives": [
        {
          "attributes": {
            "NORMAL": 7,
            "POSITION": 6,
            "TEXCOORD_0": 8
          },
          "indices": 9,
          "material": 1,
          "mode": 4
        }
      ]
    }
  ],
  "nodes": [
    {
      "children": [
        1
      ],
      "matrix": [
        1.0,
        0.0,
        0.0,
        0.0,
        0.0,
        2.220446049250313e-16,
        -1.0,
        0.0,
        0.0,
        1.0,
        2.220446049250313e-16,
        0.0,
        0.0,
        0.0,
        0.0,
        1.0
      ],
      "name": "Sketchfab_model"
    },
    {
      "children": [
        2
      ],
      "name": "root"
    },
    {
      "children": [
        3
      ],
      "matrix": [
        1.0,
        0.0,
        0.0,
        0.0,
        0.0,
        2.220446049250313e-16,
        1.0,
        0.0,
        0.0,
        -1.0,
        2.220446049250313e-16,
        0.0,
        0.0,
        0.0,
        0.0,
        1.0
      ],
      "name": "GLTF_SceneRootNode"
    },
    {
      "children": [
        4,
        5
      ],
      "matrix": [
        0.0027602354530245066,
        0.0,
        0.0,
        0.0,
        0.0,
        2.3267044485892665e-10,
        0.002760235453024497,
        0.0,
        0.0,
        -0.002760235453024497,
        2.3267044485892665e-10,
        0.0,
        0.0,
        0.0,
        0.0,
        1.0
      ],
      "name": "Transmission_Tower_1"
    },
    {
      "mesh": 0,
      "name": "Object_4"
    },
    {
      "children": [
        6
      ],
      "name": "Insulators_0"
    },
    {
      "mesh": 1,
      "name": "Object_6"
    }
  ],
  "samplers": [
    {
      "magFilter": 9729,
      "minFilter": 9987,
      "wrapS": 10497,
      "wrapT": 10497
    }
  ],
  "scene": 0,
  "scenes": [
    {
      "name": "Sketchfab_Scene",
      "nodes": [
        0
      ]
    }
  ],
  "textures": [
    {
      "sampler": 0,
      "source": 0
    },
    {
      "sampler": 0,
      "source": 1
    }
  ]
}
